<?xml version="1.0" encoding="UTF-8" standalone="no"?>
<svg xmlns:dc="http://purl.org/dc/elements/1.1/" xmlns:cc="http://creativecommons.org/ns#" xmlns:rdf="http://www.w3.org/1999/02/22-rdf-syntax-ns#" xmlns:svg="http://www.w3.org/2000/svg" xmlns="http://www.w3.org/2000/svg" xmlns:sodipodi="http://sodipodi.sourceforge.net/DTD/sodipodi-0.dtd" xmlns:inkscape="http://www.inkscape.org/namespaces/inkscape" id="Layer_1" data-name="Layer 1" viewBox="0 0 154.80006 154.80006" version="1.1" inkscape:version="0.92.4 (unknown)" sodipodi:docname="logos.svg" width="154.80006" height="154.80006">
      <g id="personNode">
         <path class="cls-2" d="M -5.2503273,23.510096 Z" id="path11" inkscape:connector-curvature="0" style="fill:#00deb6"/>
         <path d="m -5.2503273,23.510096 v 0 m 0,0 v 0 m 0,0 z m 0,0 z" id="path27" inkscape:connector-curvature="0"/>
         <path class="cls-8" d="M -5.2503273,23.510096 Z" id="path29" inkscape:connector-curvature="0" style="fill:none"/>
         <path class="cls-8" d="M -5.2503273,23.510096 Z" id="path41" inkscape:connector-curvature="0" style="fill:none"/>
         <path d="m -5.2503273,23.510096 z m 0,0 z m 0,0 z m 0,0 z m 0,0 z m 0,0 z m 0,0 z m 0,0 z m 0,0 z m 0,0 z m 0,0 z m 0,0 z" id="path43" inkscape:connector-curvature="0"/>
         <path class="cls-10" d="m -5.2503273,23.510096 v 0" id="path45" inkscape:connector-curvature="0" style="fill:none;stroke:#e6e6e6;stroke-width:1.20000005;stroke-miterlimit:10"/>
         <path class="cls-10" d="m -5.2503273,23.510096 v 0" id="path47" inkscape:connector-curvature="0" style="fill:none;stroke:#e6e6e6;stroke-width:1.20000005;stroke-miterlimit:10"/>
         <path class="cls-10" d="m -5.2503273,23.510096 v 0" id="path49" inkscape:connector-curvature="0" style="fill:none;stroke:#e6e6e6;stroke-width:1.20000005;stroke-miterlimit:10"/>
         <path class="cls-10" d="m -5.2503273,23.510096 v 0" id="path51" inkscape:connector-curvature="0" style="fill:none;stroke:#e6e6e6;stroke-width:1.20000005;stroke-miterlimit:10"/>
         <path class="cls-10" d="m -5.2503273,23.510096 v 0" id="path53" inkscape:connector-curvature="0" style="fill:none;stroke:#e6e6e6;stroke-width:1.20000005;stroke-miterlimit:10"/>
         <path class="cls-10" d="m -5.2503273,23.510096 v 0" id="path55" inkscape:connector-curvature="0" style="fill:none;stroke:#e6e6e6;stroke-width:1.20000005;stroke-miterlimit:10"/>
         <path class="cls-10" d="m -5.2503273,23.510096 v 0" id="path57" inkscape:connector-curvature="0" style="fill:none;stroke:#e6e6e6;stroke-width:1.20000005;stroke-miterlimit:10"/>
         <path class="cls-10" d="m -5.2503273,23.510096 v 0" id="path59" inkscape:connector-curvature="0" style="fill:none;stroke:#e6e6e6;stroke-width:1.20000005;stroke-miterlimit:10"/>
         <path class="cls-10" d="m -5.2503273,23.510096 v 0" id="path61" inkscape:connector-curvature="0" style="fill:none;stroke:#e6e6e6;stroke-width:1.20000005;stroke-miterlimit:10"/>
         <path class="cls-10" d="m -5.2503273,23.510096 v 0" id="path63" inkscape:connector-curvature="0" style="fill:none;stroke:#e6e6e6;stroke-width:1.20000005;stroke-miterlimit:10"/>
         <path class="cls-10" d="m -5.2503273,23.510096 v 0" id="path65" inkscape:connector-curvature="0" style="fill:none;stroke:#e6e6e6;stroke-width:1.20000005;stroke-miterlimit:10"/>
         <path class="cls-10" d="m -5.2503273,23.510096 v 0" id="path67" inkscape:connector-curvature="0" style="fill:none;stroke:#e6e6e6;stroke-width:1.20000005;stroke-miterlimit:10"/>
         <path class="cls-10" d="m -5.2503273,23.510096 v 0" id="path69" inkscape:connector-curvature="0" style="fill:none;stroke:#e6e6e6;stroke-width:1.20000005;stroke-miterlimit:10"/>
         <path class="cls-10" d="m -5.2503273,23.510096 v 0" id="path71" inkscape:connector-curvature="0" style="fill:none;stroke:#e6e6e6;stroke-width:1.20000005;stroke-miterlimit:10"/>
         <path class="cls-10" d="m -5.2503273,23.510096 v 0" id="path73" inkscape:connector-curvature="0" style="fill:none;stroke:#e6e6e6;stroke-width:1.20000005;stroke-miterlimit:10"/>
         <path class="cls-10" d="m -5.2503273,23.510096 v 0" id="path75" inkscape:connector-curvature="0" style="fill:none;stroke:#e6e6e6;stroke-width:1.20000005;stroke-miterlimit:10"/>
         <path class="cls-10" d="m -5.2503273,23.510096 v 0" id="path77" inkscape:connector-curvature="0" style="fill:none;stroke:#e6e6e6;stroke-width:1.20000005;stroke-miterlimit:10"/>
         <path class="cls-11" d="m -5.2503273,23.510096 v 0" id="path79" inkscape:connector-curvature="0" style="fill:none;stroke:#00deb6;stroke-width:6px;stroke-miterlimit:10"/>
         <path class="cls-11" d="m -5.2503273,23.510096 v 0" id="path85" inkscape:connector-curvature="0" style="fill:none;stroke:#00deb6;stroke-width:6px;stroke-miterlimit:10"/>
         <path class="cls-11" d="m -5.2503273,23.510096 v 0" id="path87" inkscape:connector-curvature="0" style="fill:none;stroke:#00deb6;stroke-width:6px;stroke-miterlimit:10"/>
         <path class="cls-11" d="m -5.2503273,23.510096 v 0" id="path89" inkscape:connector-curvature="0" style="fill:none;stroke:#00deb6;stroke-width:6px;stroke-miterlimit:10"/>
         <path class="cls-11" d="m -5.2503273,23.510096 v 0" id="path91" inkscape:connector-curvature="0" style="fill:none;stroke:#00deb6;stroke-width:6px;stroke-miterlimit:10"/>
         <path class="cls-11" d="m -5.2503273,23.510096 v 0" id="path93" inkscape:connector-curvature="0" style="fill:none;stroke:#00deb6;stroke-width:6px;stroke-miterlimit:10"/>
         <path class="cls-11" d="m -5.2503273,23.510096 v 0" id="path95" inkscape:connector-curvature="0" style="fill:none;stroke:#00deb6;stroke-width:6px;stroke-miterlimit:10"/>
         <path class="cls-10" d="m -5.2503273,23.510096 v 0" id="path97" inkscape:connector-curvature="0" style="fill:none;stroke:#e6e6e6;stroke-width:1.20000005;stroke-miterlimit:10"/>
         <path class="cls-10" d="m -5.2503273,23.510096 v 0" id="path99" inkscape:connector-curvature="0" style="fill:none;stroke:#e6e6e6;stroke-width:1.20000005;stroke-miterlimit:10"/>
         <path class="cls-10" d="m -5.2503273,23.510096 v 0" id="path101" inkscape:connector-curvature="0" style="fill:none;stroke:#e6e6e6;stroke-width:1.20000005;stroke-miterlimit:10"/>
         <path class="cls-10" d="m -5.2503273,23.510096 v 0" id="path103" inkscape:connector-curvature="0" style="fill:none;stroke:#e6e6e6;stroke-width:1.20000005;stroke-miterlimit:10"/>
         <path class="cls-10" d="m -5.2503273,23.510096 v 0" id="path105" inkscape:connector-curvature="0" style="fill:none;stroke:#e6e6e6;stroke-width:1.20000005;stroke-miterlimit:10"/>
         <path class="cls-10" d="m -5.2503273,23.510096 v 0" id="path107" inkscape:connector-curvature="0" style="fill:none;stroke:#e6e6e6;stroke-width:1.20000005;stroke-miterlimit:10"/>
         <path class="cls-10" d="m -5.2503273,23.510096 v 0" id="path109" inkscape:connector-curvature="0" style="fill:none;stroke:#e6e6e6;stroke-width:1.20000005;stroke-miterlimit:10"/>
         <path class="cls-10" d="m -5.2503273,23.510096 v 0" id="path111" inkscape:connector-curvature="0" style="fill:none;stroke:#e6e6e6;stroke-width:1.20000005;stroke-miterlimit:10"/>
         <path class="cls-10" d="m -5.2503273,23.510096 v 0" id="path113" inkscape:connector-curvature="0" style="fill:none;stroke:#e6e6e6;stroke-width:1.20000005;stroke-miterlimit:10"/>
         <path class="cls-10" d="m -5.2503273,23.510096 v 0" id="path115" inkscape:connector-curvature="0" style="fill:none;stroke:#e6e6e6;stroke-width:1.20000005;stroke-miterlimit:10"/>
         <path class="cls-10" d="m -5.2503273,23.510096 v 0" id="path117" inkscape:connector-curvature="0" style="fill:none;stroke:#e6e6e6;stroke-width:1.20000005;stroke-miterlimit:10"/>
         <path class="cls-10" d="m -5.2503273,23.510096 v 0" id="path119" inkscape:connector-curvature="0" style="fill:none;stroke:#e6e6e6;stroke-width:1.20000005;stroke-miterlimit:10"/>
         <path class="cls-2" d="M -5.2503273,23.510096 Z" id="path171" inkscape:connector-curvature="0" style="fill:#00deb6"/>
         <path class="cls-2" d="M -5.2503273,23.510096 Z" id="path197" inkscape:connector-curvature="0" style="fill:#00deb6"/>
         <path class="cls-8" d="M -5.2503273,23.510096 Z" id="path211" inkscape:connector-curvature="0" style="fill:none"/>
         <path d="m -5.2503273,23.510096 z m 0,0 z m 0,0 z m 0,0 z m 0,0 z m 0,0 z m 0,0 z m 0,0 z m 0,0 z m 0,0 z m 0,0 z m 0,0 z" id="path213" inkscape:connector-curvature="0"/>
         <circle class="cls-11" cx="224.71397" cy="429.64316" r="43.965218" id="circle209-2" style="fill:#fff;fill-opacity:1;stroke:#88c9d3;stroke-width:6.86999989;stroke-miterlimit:10;stroke-dasharray:none;stroke-opacity:1" inkscape:transform-center-x="-10.602233" inkscape:transform-center-y="145.53973" inkscape:export-filename="/home/kadie/Documents/BODS/TemplateImages/fullCompany.png" inkscape:export-xdpi="292.05405" inkscape:export-ydpi="292.05405"/>
         <ellipse class="cls-11" id="circle209-7-4-8" style="fill:#fff;fill-opacity:1;stroke:#b2b3b9;stroke-width:1.86959994;stroke-linecap:round;stroke-miterlimit:10;stroke-dasharray:none;stroke-opacity:1" inkscape:transform-center-x="-10.662373" inkscape:transform-center-y="141.00009" cx="224.71397" cy="252.04317" rx="44.214584" ry="42.593861" inkscape:export-filename="/home/kadie/Documents/BODS/TemplateImages/partCompany.png" inkscape:export-xdpi="292.05405" inkscape:export-ydpi="292.05405"/>
         <path class="cls-11" id="circle209-7-4" style="fill:none;stroke:#88c9d3;stroke-width:6.32999992;stroke-linecap:round;stroke-miterlimit:10;stroke-dasharray:none;stroke-opacity:1" inkscape:transform-center-x="-10.662374" inkscape:transform-center-y="141.00009" sodipodi:type="arc" sodipodi:cx="224.71397" sodipodi:cy="252.04317" sodipodi:rx="44.214584" sodipodi:ry="42.593861" sodipodi:start="1.0471976" sodipodi:end="4.8171087" d="m 246.82126,288.93053 a 44.214584,42.593861 0 0 1 -51.69262,-5.23396 44.214584,42.593861 0 0 1 -10.8067,-48.97789 44.214584,42.593861 0 0 1 45.01371,-25.03604" sodipodi:open="true" inkscape:export-filename="/home/kadie/Documents/BODS/TemplateImages/partCompany.png" inkscape:export-xdpi="292.05405" inkscape:export-ydpi="292.05405"/>
         <ellipse class="cls-7" cx="77.400032" cy="77.400032" id="ellipse25-6" style="fill:#fff;fill-opacity:1;stroke:#b2b3b9;stroke-width:3.0588665;stroke-miterlimit:10;stroke-dasharray:none;stroke-opacity:1" inkscape:export-filename="/home/kadie/Documents/BODS/TemplateImages/person.png" inkscape:export-xdpi="284.80988" inkscape:export-ydpi="284.80988" rx="76.227509" ry="75.817276"/>
         <path id="path4516" d="m 224.74911,243.3215 0.0225,-6.97752 -17.44333,-0.0566 -0.0977,31.39838 34.88764,0.11328 0.0792,-24.42085 z m -10.5342,20.89838 -3.48827,-0.012 0.0108,-3.48828 3.48925,0.012 z m 0.0225,-6.97753 -3.48827,-0.012 0.0108,-3.48827 3.48925,0.012 z m 0.0225,-6.97752 -3.48827,-0.012 0.0108,-3.48828 3.48925,0.012 z m 0.0225,-6.97753 -3.48827,-0.012 0.0108,-3.48827 3.48925,0.012 z m 6.91011,20.95506 -3.48828,-0.0108 0.0108,-3.49218 3.48926,0.012 z m 0.0225,-6.97753 -3.48828,-0.0108 0.0108,-3.48926 3.48926,0.012 z m 0.0225,-6.97752 -3.48828,-0.0108 0.0108,-3.48926 3.48926,0.012 z m 0.0225,-6.97754 -3.48828,-0.0108 0.0118,-3.48925 3.48926,0.012 z m 17.37688,20.98925 -13.95505,-0.042 0.0108,-3.48925 3.48925,0.012 0.0108,-3.48925 -3.48827,-0.0108 0.0108,-3.48925 3.48926,0.012 0.0108,-3.48926 -3.48829,-0.0108 0.0108,-3.48925 13.95506,0.046 z m -3.4443,-13.96677 -3.48828,-0.0108 -0.012,3.48826 3.48926,0.012 z m -0.0224,6.97753 -3.48828,-0.0108 -0.012,3.48828 3.48926,0.012 z" inkscape:connector-curvature="0" inkscape:export-filename="/home/kadie/Documents/BODS/TemplateImages/partCompany.png" inkscape:export-xdpi="292.05405" inkscape:export-ydpi="292.05405"/>
         <path id="path5743" d="m 77.528618,58.711095 a 6.4556114,6.4208697 0 1 1 -6.477575,6.399035 6.4540422,6.4193089 0 0 1 6.477575,-6.399035 m -0.08941,27.517345 c 9.129505,0.02976 18.736026,4.526144 18.729743,6.481746 l -0.01148,3.363389 -37.503418,-0.121725 0.01148,-3.363405 c 0,-1.955586 9.642612,-6.389644 18.773675,-6.359979 M 77.547484,52.902051 A 12.296104,12.229931 0 1 0 89.80436,65.170992 12.292966,12.226809 0 0 0 77.547484,52.902051 Z m -0.08941,27.517344 c -8.20833,-0.02663 -24.606275,4.017328 -24.6361,12.150335 l -0.02986,9.17243 49.184436,0.15599 0.0313,-9.17243 C 102.0361,84.595846 85.664865,80.445841 77.458043,80.41931 Z" inkscape:connector-curvature="0" inkscape:export-filename="/home/kadie/Documents/BODS/TemplateImages/person.png" inkscape:export-xdpi="284.80988" inkscape:export-ydpi="284.80988" style="stroke-width:1.63610756"/>
         <path id="path4516-2" d="m 224.74911,420.9215 0.0225,-6.97752 -17.44333,-0.0566 -0.0977,31.39838 34.88764,0.11328 0.0792,-24.42085 z m -10.5342,20.89838 -3.48828,-0.012 0.0108,-3.48828 3.48925,0.012 z m 0.0225,-6.97753 -3.48828,-0.012 0.0108,-3.48827 3.48925,0.012 z m 0.0225,-6.97752 -3.48828,-0.012 0.0108,-3.48828 3.48925,0.012 z m 0.0225,-6.97753 -3.48828,-0.012 0.0108,-3.48827 3.48925,0.012 z m 6.9101,20.95506 -3.48827,-0.0108 0.0108,-3.49218 3.48925,0.012 z m 0.0225,-6.97753 -3.48827,-0.0108 0.0108,-3.48926 3.48925,0.012 z m 0.0225,-6.97752 -3.48827,-0.0108 0.0108,-3.48926 3.48925,0.012 z m 0.0225,-6.97754 -3.48827,-0.0108 0.0118,-3.48925 3.48925,0.012 z m 17.37689,20.98925 -13.95505,-0.042 0.0108,-3.48925 3.48925,0.012 0.0108,-3.48925 -3.48828,-0.0108 0.0108,-3.48925 3.48927,0.012 0.0108,-3.48926 -3.48829,-0.0108 0.0108,-3.48925 13.95506,0.046 z m -3.4443,-13.96677 -3.48828,-0.0108 -0.012,3.48826 3.48926,0.012 z m -0.0224,6.97753 -3.48828,-0.0108 -0.012,3.48828 3.48926,0.012 z" inkscape:connector-curvature="0" inkscape:transform-center-x="2.5255008" inkscape:transform-center-y="-135.53528" inkscape:export-filename="/home/kadie/Documents/BODS/TemplateImages/fullCompany.png" inkscape:export-xdpi="292.05405" inkscape:export-ydpi="292.05405"/>
         <ellipse class="cls-11" id="circle209-7-4-8-6" style="fill:#fff;fill-opacity:1;stroke:#b2b3b9;stroke-width:1.86959994;stroke-linecap:round;stroke-miterlimit:10;stroke-dasharray:none;stroke-opacity:1" inkscape:transform-center-x="-10.662373" inkscape:transform-center-y="141.00009" cx="375.28497" cy="252.0432" rx="44.214584" ry="42.593861" inkscape:export-filename="/home/kadie/Documents/BODS/TemplateImages/partTrust.png" inkscape:export-xdpi="292.05405" inkscape:export-ydpi="292.05405"/>
         <path class="cls-11" id="circle209-7-4-3" style="fill:none;stroke:#88c9d3;stroke-width:6.32999992;stroke-linecap:round;stroke-miterlimit:10;stroke-dasharray:none;stroke-opacity:1" inkscape:transform-center-x="-10.662374" inkscape:transform-center-y="141.00009" sodipodi:type="arc" sodipodi:cx="375.28494" sodipodi:cy="252.0432" sodipodi:rx="44.214584" sodipodi:ry="42.593861" sodipodi:start="1.0471976" sodipodi:end="4.8171087" d="m 397.39223,288.93056 a 44.214584,42.593861 0 0 1 -51.69262,-5.23396 44.214584,42.593861 0 0 1 -10.8067,-48.97789 44.214584,42.593861 0 0 1 45.01371,-25.03604" sodipodi:open="true" inkscape:export-filename="/home/kadie/Documents/BODS/TemplateImages/partTrust.png" inkscape:export-xdpi="292.05405" inkscape:export-ydpi="292.05405"/>
      </g>
</svg>
