<svg id="Interests" xmlns="http://www.w3.org/2000/svg" viewBox="0 0 720 720"><defs><style>.cls-1{fill:#fff;}</style></defs><g id="Unknown"><circle class="cls-1" cx="360" cy="360" r="120"/><path d="M331.08,200.08H350v40.34c3.3-.27,6.63-.42,10-.42s6.7.15,10,.42V200.08h18.92L360,150Zm137.5,108.78,34.91-20.16L513,305.08,541.87,255H484l9.46,16.38-34.93,20.17A119.36,119.36,0,0,1,468.58,308.86ZM236,255H178.14l28.91,50.08,9.46-16.38,34.91,20.16a119.36,119.36,0,0,1,10-17.31l-34.93-20.17ZM503.49,431.3l-34.91-20.16a119.36,119.36,0,0,1-10,17.31l34.93,20.17L484,465h57.84L513,414.92ZM251.42,411.14,216.51,431.3l-9.46-16.38L178.14,465H236l-9.46-16.38,34.93-20.17A119.36,119.36,0,0,1,251.42,411.14ZM370,479.58c-3.3.27-6.63.42-10,.42s-6.7-.15-10-.42v40.34H331.08L360,570l28.92-50.08H370Z"/><path d="M360,310c-23,0-34.58,14.73-35,33h18c.14-10.71,6.56-17.2,17-17.2,8.61,0,15.56,5.82,15.56,14.2s-3.27,10.34-9.34,14.59C357.61,360.64,351,363.93,351,380h18c0-9.75,4.34-9.84,14.93-17.67,6.06-4.53,11.07-9.5,11.07-23.1C395,323,381.59,310,360,310Zm10,80H350v20h20V390Z"/></g></svg>