<?xml version="1.0" encoding="utf-8"?>
<!-- Generator: Adobe Illustrator 24.2.0, SVG Export Plug-In . SVG Version: 6.00 Build 0)  -->
<svg version="1.1" id="Organisation" xmlns="http://www.w3.org/2000/svg" xmlns:xlink="http://www.w3.org/1999/xlink" x="0px"
	 y="0px" viewBox="0 0 720 720" style="enable-background:new 0 0 720 720;" xml:space="preserve">
<style type="text/css">
	.st0{fill:#FFFFFF;}
</style>
<g id="Unknown">
	<polygon class="st0" points="215,530 215,180 385,180 385,300 505,300 505,530 	"/>
	<path d="M375,190v120h120v210H225V190H375 M395,170H205v370h310V290H395V170z"/>
	<path d="M366.2,409.6c6.1-4.3,9.3-6.2,9.3-14.6s-7-14.2-15.6-14.2c-10.4,0-16.9,6.5-17,17.2h-18c0.4-18.3,12-33,35-33
		c21.6,0,35,13,35,29.2c0,13.6-5,18.6-11.1,23.1c-10.6,7.8-14.9,7.9-14.9,17.7h-18C351,418.9,357.6,415.6,366.2,409.6z M350,445h20
		v20h-20V445z"/>
</g>
</svg>
