<?xml version="1.0" encoding="utf-8"?>
<!-- Generator: Adobe Illustrator 24.2.0, SVG Export Plug-In . SVG Version: 6.00 Build 0)  -->
<svg version="1.1" id="Listed" xmlns="http://www.w3.org/2000/svg" xmlns:xlink="http://www.w3.org/1999/xlink" x="0px" y="0px"
	 viewBox="0 0 720 720" style="enable-background:new 0 0 720 720;" xml:space="preserve">
<style type="text/css">
	.st0{fill:#FFFFFF;}
</style>
<g id="Unknown">
	<polygon class="st0" points="530,395 530,170 410,170 410,330 300,330 300,400 190,400 190,530 530,530 	"/>
	<path d="M540,540H180V390h110v-70h110V160h140V540z M200,520h320V180H420v160H310v70H200V520z"/>
	<path d="M421.2,424.6c6.1-4.3,9.3-6.2,9.3-14.6s-7-14.2-15.6-14.2c-10.4,0-16.9,6.5-17,17.2h-18c0.4-18.3,12-33,35-33
		c21.6,0,35,13,35,29.2c0,13.6-5,18.6-11.1,23.1c-10.6,7.8-14.9,7.9-14.9,17.7h-18C406,433.9,412.6,430.6,421.2,424.6z M405,460h20
		v20h-20V460z"/>
	<polygon points="540,160 540,120 506.4,160 	"/>
</g>
</svg>
