<?xml version="1.0" encoding="utf-8"?>
<!-- Generator: Adobe Illustrator 24.3.0, SVG Export Plug-In . SVG Version: 6.00 Build 0)  -->
<svg version="1.1" id="Arrangement_1_" xmlns="http://www.w3.org/2000/svg" xmlns:xlink="http://www.w3.org/1999/xlink" x="0px"
	 y="0px" viewBox="0 0 720 720" style="enable-background:new 0 0 720 720;" xml:space="preserve">
<style type="text/css">
	.st0{fill:#FFFFFF;}
</style>
<path class="st0" d="M305.7,486.4c-35.9,0-65-29-65.1-64.9c0-23.3,12.4-44.8,32.5-56.4l81.6-47.1c0.5-0.3,1.1-0.6,1.6-1
	c1.2-0.8,2.5-1.4,3.8-2l9.9,0.1l0-10.1v-35h165v106.1c-19.3,3.6-45.5,15.4-54.5,20c-36.2,18.4-137.2,78.5-142.4,81.6
	C328.2,483.4,317.1,486.4,305.7,486.4z"/>
<path d="M525,280v88.1c-23.2,6-48.7,18.9-49,19.1c-36.3,18.4-137,78.4-143,81.9c-26.3,15.2-60,6.1-75.1-20.2
	c-15.2-26.3-6.1-60,20.2-75.1l81.6-47.1l1.8-1l0.9-0.6l17.5,0.3V280H525 M545,260H360v45h-0.1c-3.5,0-7,2.5-10.2,4.3l-81.6,47.1
	c-35.9,20.7-48.2,66.6-27.5,102.4c0,0,0,0,0,0l0,0c20.7,35.9,66.6,48.2,102.5,27.5c0,0,0,0,0,0c0,0,105.4-62.8,141.9-81.3
	c14.1-7.1,45-20,60-20V260z"/>
<rect x="520" y="250" class="st0" width="40" height="160"/>
<path d="M550,260v140h-20V260H550 M570,240h-60v180h60V240z"/>
<path class="st0" d="M414.3,486.4c-11.4,0-22.5-3-32.4-8.7c-5.2-3.1-106.2-63.3-142.4-81.6c-9.1-4.6-35.3-16.4-54.5-20V270h165v45.1
	l9.9-0.1c1.3,0.6,2.6,1.2,3.8,2c0.5,0.3,1.1,0.6,1.6,1l81.6,47.1c31.1,17.9,41.8,57.7,23.8,88.8C459,474,437.5,486.4,414.3,486.4
	L414.3,486.4z"/>
<path d="M340,280v45.3l17.5-0.3l0.9,0.6l1.8,1l81.6,47.1c26.3,15.1,35.4,48.8,20.3,75.1c-15.1,26.3-48.8,35.4-75.1,20.3
	c-5.9-3.5-106.6-63.5-142.9-81.9c-0.3-0.2-25.9-13-49.1-19.1V280H340 M360,260H175v125c15,0,45.9,12.9,60,20
	c36.5,18.5,141.9,81.3,141.9,81.3c35.9,20.7,81.7,8.4,102.5-27.4c0,0,0,0,0,0l0,0c20.7-35.9,8.4-81.7-27.5-102.4c0,0,0,0,0,0
	l-81.6-47.1c-3.2-1.9-6.7-4.3-10.2-4.3H360V260z"/>
<rect x="160" y="250" class="st0" width="40" height="160"/>
<path d="M190,260v140h-20V260H190 M210,240h-60v180h60V240z"/>
<path class="st0" d="M434.6,270H360c-15,0-19.8-0.9-27.5,3.4l-73.6,42.5c-12,6.9-16.1,22.2-9.2,34.1l0,0c6.9,12,22.2,16.1,34.2,9.1
	L360,315l74.6,43"/>
<path d="M271.4,372.5c-12.1,0-23.9-6.3-30.4-17.5c-9.6-16.7-3.9-38.2,12.8-47.8l73.6-42.5c0,0,0.1-0.1,0.1-0.1
	c8.7-4.8,15.2-4.8,25.8-4.7c1.9,0,4.1,0,6.5,0h150v20H360c-2.5,0-4.7,0-6.7,0c-9.7-0.1-11.9-0.1-15.8,2.1l-73.5,42.5
	c-7.2,4.1-9.6,13.3-5.5,20.5c4.1,7.2,13.3,9.6,20.5,5.5l76.1-44.1c3.1-1.8,6.9-1.8,10,0l74.6,43l-10,17.3L360,326.6l-71.1,41.2
	C283.4,371,277.4,372.5,271.4,372.5z"/>
</svg>
