<?xml version="1.0" encoding="utf-8"?>
<!-- Generator: Adobe Illustrator 24.2.0, SVG Export Plug-In . SVG Version: 6.00 Build 0)  -->
<svg version="1.1" id="State" xmlns="http://www.w3.org/2000/svg" xmlns:xlink="http://www.w3.org/1999/xlink" x="0px" y="0px"
	 viewBox="0 0 720 720" style="enable-background:new 0 0 720 720;" xml:space="preserve">
<style type="text/css">
	.st0{fill:#FFFFFF;}
</style>
<path class="st0" d="M472.6,203.2c-75.1,0-150.1,43.6-225.2,43.6c-27.4,0-54.9-5.8-82.4-21.8v270c27.5,16,54.9,21.8,82.4,21.8
	c75.1,0,150.1-43.6,225.2-43.6c27.5,0,55,5.9,82.4,21.8V225C527.5,209,500.1,203.2,472.6,203.2L472.6,203.2z"/>
<path d="M472.6,223.2c22.6,0,43.1,4.5,62.4,13.8v226.7c-20-7.1-41.2-10.6-62.4-10.5c-40.4,0-79.9,11.5-118.2,22.6
	c-37.2,10.8-72.3,21-107,21c-22.6,0-43.2-4.5-62.4-13.8V256.3c20,7.1,41.2,10.6,62.4,10.5c40.4,0,79.9-11.5,118.2-22.6
	C402.8,233.4,437.9,223.2,472.6,223.2L472.6,223.2 M472.6,203.2c-75,0-150.1,43.6-225.2,43.6c-27.4,0-55-5.8-82.4-21.8v270
	c27.5,16,54.9,21.8,82.4,21.8c75.1,0,150.1-43.6,225.2-43.6c27.5,0,55,5.9,82.4,21.8V225C527.5,209,500.1,203.2,472.6,203.2
	L472.6,203.2z"/>
</svg>
