<?xml version="1.0" encoding="utf-8"?>
<!-- Generator: Adobe Illustrator 24.2.0, SVG Export Plug-In . SVG Version: 6.00 Build 0)  -->
<svg version="1.1" id="Listed" xmlns="http://www.w3.org/2000/svg" xmlns:xlink="http://www.w3.org/1999/xlink" x="0px" y="0px"
	 viewBox="0 0 720 720" style="enable-background:new 0 0 720 720;" xml:space="preserve">
<style type="text/css">
	.st0{fill:#FFFFFF;}
</style>
<polygon class="st0" points="530,395 530,170 410,170 410,330 300,330 300,400 190,400 190,530 530,530 "/>
<path d="M540,540H180V390h110v-70h110V160h140V540z M200,520h320V180H420v160H310v70H200V520z"/>
<polygon points="241.9,465.3 301.9,505.3 361.9,420.3 423.8,461.5 533.4,160 517.5,160 416.2,438.5 358.1,399.7 298.1,484.7 
	238.1,444.7 180,527 180,540 189.2,540 "/>
<path d="M462.9,211.9L540,240V120L462.9,211.9z"/>
</svg>
