<svg id="Entity" xmlns="http://www.w3.org/2000/svg" viewBox="0 0 720 720"><defs><style>.cls-1{fill:#fff;}</style></defs><g id="Unknown"><path class="cls-1" d="M360,150,177.31,255.05V465L360,570,542.69,465V255.05L360,150Z"/><path d="M360,173.07l162.69,93.55V453.38L360,546.93,197.31,453.38V266.62L360,173.07M360,150,177.31,255.05V465L360,570,542.69,465V255.05L360,150Z"/><path d="M360,310c-23,0-34.58,14.73-35,33h18c.14-10.71,6.56-17.2,17-17.2,8.61,0,15.56,5.82,15.56,14.2s-3.27,10.34-9.34,14.59C357.61,360.64,351,363.93,351,380h18c0-9.75,4.34-9.84,14.93-17.67,6.06-4.53,11.07-9.5,11.07-23.1C395,323,381.59,310,360,310Zm10,80H350v20h20V390Z"/></g></svg>