<?xml version="1.0" encoding="utf-8"?>
<!-- Generator: Adobe Illustrator 26.0.3, SVG Export Plug-In . SVG Version: 6.00 Build 0)  -->
<svg version="1.1" id="SOE" xmlns="http://www.w3.org/2000/svg" xmlns:xlink="http://www.w3.org/1999/xlink" x="0px" y="0px"
	 viewBox="0 0 720 720" style="enable-background:new 0 0 720 720;" xml:space="preserve">
<style type="text/css">
	.st0{fill:#FFFFFF;}
</style>
<g>
	<path class="st0" d="M190,530v-40h25V350h-25v-40h123.8l2.9-5c7.5-13,20.2-21.8,35-24.3l8.3-1.4V190v89.3l8.3,1.4
		c14.7,2.5,27.4,11.3,35,24.3l2.9,5H530v40h-25v140h25v40H190z"/>
	<path class="st0" d="M384.9,248.1c-9,0-17.2-1.5-24.9-4.5v-78.9c7.8,2.3,16.1,3.4,24.9,3.4c17.1,0,33.9-4.3,50.1-8.4
		c15.7-4,30.5-7.8,45.2-7.8c9,0,17.2,1.5,24.9,4.5v78.9c-7.8-2.3-16.1-3.4-24.9-3.4c-17.1,0-33.9,4.3-50.1,8.4
		C414.3,244.3,399.5,248.1,384.9,248.1C384.9,248.1,384.9,248.1,384.9,248.1z"/>
</g>
<g>
	<path d="M360,289.4l6.7,1.1c11.8,2,21.9,9.1,28,19.4l5.8,10H412h108v20h-5h-20v20v120v20h20h5v20H200v-20h5h20v-20V360v-20h-20h-5
		v-20h108h11.5l5.8-10c6-10.4,16.2-17.5,28-19.4L360,289.4 M370,180h-20v90.8c-17.9,3-33.2,14-42,29.2H180v60h25v120h-25v60h360v-60
		h-25V360h25v-60H412c-8.8-15.2-24-26.1-42-29.2V180L370,180z"/>
	<rect x="260" y="360" width="25" height="120"/>
	<rect x="435" y="360" width="25" height="120"/>
	<rect x="375" y="360" width="25" height="120"/>
	<rect x="320" y="360" width="25" height="120"/>
	<path d="M480.1,161.9c5.3,0,10.2,0.6,14.9,1.8V223c-4.8-0.7-9.8-1-14.9-1c-18.4,0-35.8,4.4-52.6,8.7c-15.1,3.8-29.3,7.5-42.7,7.5
		c-5.3,0-10.2-0.6-14.9-1.8V177c4.8,0.7,9.8,1,14.9,1c18.4,0,35.8-4.4,52.6-8.7C452.5,165.5,466.8,161.9,480.1,161.9L480.1,161.9
		 M480.1,141.9c-31.8,0-63.5,16.2-95.3,16.2c-11.6,0-23.2-2.2-34.9-8.1c0,33.3,0,66.7,0,100c11.6,5.9,23.2,8.1,34.9,8.1
		c31.8,0,63.5-16.2,95.3-16.2c11.6,0,23.2,2.2,34.9,8.1c0-33.3,0-66.7,0-100C503.4,144.1,491.8,141.9,480.1,141.9L480.1,141.9z"/>
</g>
</svg>
