<?xml version="1.0" encoding="utf-8"?>
<!-- Generator: Adobe Illustrator 24.3.0, SVG Export Plug-In . SVG Version: 6.00 Build 0)  -->
<svg version="1.1" id="Trust" xmlns="http://www.w3.org/2000/svg" xmlns:xlink="http://www.w3.org/1999/xlink" x="0px" y="0px"
	 viewBox="0 0 720 720" style="enable-background:new 0 0 720 720;" xml:space="preserve">
<style type="text/css">
	.st0{fill:#FFFFFF;}
</style>
<circle class="st0" cx="360" cy="360" r="120"/>
<polygon points="513,305.1 541.9,255 484,255 493.5,271.4 370,342.7 370,200.1 388.9,200.1 360,150 331.1,200.1 350,200.1 
	350,342.7 226.5,271.4 236,255 178.1,255 207,305.1 216.5,288.7 350,365.8 350,500 370,500 370,365.8 503.5,288.7 "/>
<path class="st0" d="M190,545l208,0c50,0,87.4-23.4,110-43c26.5-23.1,44.3-50.9,50.1-68.3c2.7-8,2.5-14.7-0.5-18.9
	c-2.2-3.1-6.1-4.8-10.9-4.8c-6.9,0-14.4,3.5-20.5,9.7c-22.4,22.4-50.3,50.3-79.7,50.3H420c0-0.3,0-0.7,0-1c0-13.3-10.7-24-24-24H252
	c-14,0-36.2,13.6-52.3,25H190V545z"/>
<rect x="160" y="430" class="st0" width="40" height="130"/>
<path d="M190,440v110h-20V440H190 M210,420h-60v150h60V420z"/>
<path d="M546.8,400L546.8,400c-8.9,0-19,4-27.6,12.6c-24.2,24.2-48.4,47.4-72.7,47.4h-17.7c-4-14.4-17.1-25-32.8-25H252
	c-11.9,0-27.7,7.5-42,16.2V475c15.6-10.6,32.5-20,42-20h144c7.7,0,14,6.3,14,14s-6.3,14-14,14h-97.1v20H396c14.9,0,27.6-9.6,32.2-23
	h18.3c33.6,0,63.1-29.5,86.8-53.3c4.2-4.2,9.3-6.8,13.5-6.8h0c1-0.1,1.9,0.1,2.8,0.6c0.4,0.6,1.2,3.7-0.9,9.9
	c-4,12-18.4,39-47.1,63.9C480.2,513,445,535,398,535H210v20h188c96.9,0,157.5-81.8,169.6-118.2C575.4,413.4,563,400,546.8,400z"/>
</svg>
