<?xml version="1.0" encoding="utf-8"?>
<!-- Generator: Adobe Illustrator 24.2.0, SVG Export Plug-In . SVG Version: 6.00 Build 0)  -->
<svg version="1.1" id="Organisation" xmlns="http://www.w3.org/2000/svg" xmlns:xlink="http://www.w3.org/1999/xlink" x="0px"
	 y="0px" viewBox="0 0 720 720" style="enable-background:new 0 0 720 720;" xml:space="preserve">
<style type="text/css">
	.st0{fill:#FFFFFF;}
</style>
<polygon class="st0" points="215,530 215,180 385,180 385,300 505,300 505,530 "/>
<path d="M375,190v120h120v210H225V190H375 M395,170H205v370h310V290H395V170z"/>
<path d="M280,540h40v-80h-40V540z M285,400h-30v30h30V400z M315,430h30v-30h-30V430z M285,220h-30v30h30V220z M315,370h30v-30h-30
	V370z M285,340h-30v30h30V340z M285,280h-30v30h30V280z M315,250h30v-30h-30V250z M435,490h30v-30h-30V490z M435,430h30v-30h-30V430
	z M435,340v30h30v-30H435z M375,490h30v-30h-30V490z M315,310h30v-30h-30V310z M375,370h30v-30h-30V370z M375,430h30v-30h-30V430z"
	/>
</svg>
