<svg id="Person" xmlns="http://www.w3.org/2000/svg" viewBox="0 0 720 720"><defs><style>.cls-1{fill:#fff;}</style></defs><g id="Unknown"><path class="cls-1" d="M360,165a100,100,0,0,0-63.57,177.19C255,371,210,425,210,515v25H510V515c0-90-45-144-86.43-172.81A100,100,0,0,0,360,165Z"/><path d="M360,185a80,80,0,0,1,50.85,141.76l-20.36,16.79,21.67,15.06A177.82,177.82,0,0,1,465,415.67c16.58,28.61,25,62,25,99.33v5H230v-5c0-37.3,8.41-70.72,25-99.33a177.82,177.82,0,0,1,52.85-57.06l21.67-15.06-20.36-16.79A80,80,0,0,1,360,185m0-20a100,100,0,0,0-63.57,177.19C255,371,210,425,210,515v25H510V515c0-90-45-144-86.43-172.81A100,100,0,0,0,360,165Z"/><path d="M360,370c-23,0-34.58,14.73-35,33h18c.14-10.71,6.56-17.2,17-17.2,8.61,0,15.56,5.82,15.56,14.2s-3.27,10.34-9.34,14.59C357.61,420.64,351,423.93,351,440h18c0-9.75,4.34-9.84,14.93-17.67,6.06-4.53,11.07-9.5,11.07-23.1C395,383,381.59,370,360,370Zm10,80H350v20h20V450Z"/></g></svg>