<svg xmlns:dc="http://purl.org/dc/elements/1.1/" xmlns:cc="http://creativecommons.org/ns#" xmlns:rdf="http://www.w3.org/1999/02/22-rdf-syntax-ns#" xmlns:svg="http://www.w3.org/2000/svg" xmlns="http://www.w3.org/2000/svg" id="Layer_1" data-name="Layer 1" viewBox="0 0 154.80006 154.80006" version="1.1" width="154.80006" height="154.80006">
    <g id="personNodeSVG">
        <ellipse class="cls-7" cx="77.400032" cy="77.400032" id="ellipse25-6" style="fill:#fff;fill-opacity:1;stroke:#b2b3b9;stroke-width:3.0588665;stroke-miterlimit:10;stroke-dasharray:none;stroke-opacity:1" rx="76.227509" ry="75.817276"/>
        <path id="path5743" d="m 77.528618,58.711095 a 6.4556114,6.4208697 0 1 1 -6.477575,6.399035 6.4540422,6.4193089 0 0 1 6.477575,-6.399035 m -0.08941,27.517345 c 9.129505,0.02976 18.736026,4.526144 18.729743,6.481746 l -0.01148,3.363389 -37.503418,-0.121725 0.01148,-3.363405 c 0,-1.955586 9.642612,-6.389644 18.773675,-6.359979 M 77.547484,52.902051 A 12.296104,12.229931 0 1 0 89.80436,65.170992 12.292966,12.226809 0 0 0 77.547484,52.902051 Z m -0.08941,27.517344 c -8.20833,-0.02663 -24.606275,4.017328 -24.6361,12.150335 l -0.02986,9.17243 49.184436,0.15599 0.0313,-9.17243 C 102.0361,84.595846 85.664865,80.445841 77.458043,80.41931 Z" style="stroke-width:1.63610756"/>
    </g>
</svg>
