<svg xmlns:dc="http://purl.org/dc/elements/1.1/" xmlns:cc="http://creativecommons.org/ns#" xmlns:rdf="http://www.w3.org/1999/02/22-rdf-syntax-ns#" xmlns:svg="http://www.w3.org/2000/svg" xmlns="http://www.w3.org/2000/svg" id="Layer_1" data-name="Layer 1" viewBox="0 0 154.80006 154.80006" version="1.1" width="154.80006" height="154.80006">
        <g id="entityNodeSVG">
            <ellipse class="cls-7" cx="77.400032" cy="77.400032" id="ellipse25-6-0" style="fill:#fff;fill-opacity:1;stroke:#b2b3b9;stroke-width:3.07496047;stroke-miterlimit:10;stroke-dasharray:none;stroke-opacity:1" rx="77.039917" ry="75.809235"/>
            <path id="path4516-7" d="m 77.458263,63.170344 0.03731,-11.384005 -28.921252,-0.09234 -0.161988,51.227281 57.844137,0.18482 0.13131,-39.843261 z m -17.465831,34.096262 -5.783594,-0.01958 0.01791,-5.69122 5.785218,0.01958 z m 0.0373,-11.384028 -5.783594,-0.01958 0.01791,-5.691203 5.785219,0.01958 z m 0.03731,-11.384004 -5.783594,-0.01958 0.01791,-5.691219 5.785219,0.01958 z m 0.03731,-11.384028 -5.783594,-0.01958 0.01791,-5.691203 5.785218,0.01958 z m 11.457046,34.188737 -5.783611,-0.01762 0.01791,-5.697582 5.785235,0.01958 z m 0.0373,-11.384028 -5.78361,-0.01762 0.01791,-5.692819 5.785235,0.01958 z m 0.03731,-11.384005 -5.78361,-0.01762 0.01791,-5.692818 5.785236,0.01958 z m 0.03731,-11.384044 -5.783611,-0.01762 0.01957,-5.692802 5.785235,0.01958 z m 28.811082,34.244519 -23.137647,-0.06852 0.01791,-5.692802 5.785218,0.01958 0.01791,-5.692808 -5.783594,-0.01762 0.01791,-5.692802 5.785235,0.01958 0.01791,-5.692818 -5.783627,-0.01762 0.01791,-5.692802 23.137655,0.07505 z m -5.710696,-22.787154 -5.783611,-0.01762 -0.0199,5.691186 5.785235,0.01958 z m -0.03714,11.384021 -5.78361,-0.01762 -0.0199,5.691226 5.785235,0.01958 z" style="stroke-width:1.64471567"/>
        </g>
</svg>
