<?xml version="1.0" encoding="utf-8"?>
<!-- Generator: Adobe Illustrator 24.3.0, SVG Export Plug-In . SVG Version: 6.00 Build 0)  -->
<svg version="1.1" id="Arrangement_Unknown" xmlns="http://www.w3.org/2000/svg" xmlns:xlink="http://www.w3.org/1999/xlink"
	 x="0px" y="0px" viewBox="0 0 720 720" style="enable-background:new 0 0 720 720;" xml:space="preserve">
<style type="text/css">
	.st0{fill:#FFFFFF;}
</style>
<path class="st0" d="M305.7,486.4c-35.9,0-65-29-65.1-64.9c0-23.3,12.4-44.8,32.5-56.4l81.6-47.1c0.5-0.3,1.1-0.6,1.6-1
	c1.2-0.8,2.5-1.4,3.8-2l9.9,0.1l0-10.1v-35h165v106.1c-19.3,3.6-45.5,15.4-54.5,20c-36.2,18.4-137.2,78.5-142.4,81.6
	C328.2,483.4,317.1,486.4,305.7,486.4z"/>
<path d="M525,280v88.1c-23.2,6-48.7,18.9-49,19.1c-36.3,18.4-137,78.4-143,81.9c-26.3,15.2-60,6.1-75.1-20.2
	c-15.2-26.3-6.1-60,20.2-75.1l81.6-47.1l1.8-1l0.9-0.6l17.5,0.3V280H525 M545,260H360v45h-0.1c-3.5,0-7,2.5-10.2,4.3l-81.6,47.1
	c-36,20.5-48.6,66.3-28.1,102.3s66.3,48.6,102.3,28.1c0.3-0.2,0.6-0.3,0.9-0.5c0,0,105.4-62.8,141.9-81.3c14.1-7.1,45-20,60-20V260z
	"/>
<path class="st0" d="M434.6,270H360c-15,0-19.8-0.9-27.5,3.4l-73.6,42.5c-12,6.9-16.1,22.2-9.2,34.1l0,0c6.9,12,22.2,16.1,34.2,9.1
	L360,315l74.6,43"/>
<rect x="520" y="250" class="st0" width="40" height="160"/>
<path class="st0" d="M434.6,358v-88H360c-6.7,0-11.4-0.2-15.2,0H185v106.1c19.3,3.6,45.5,15.4,54.5,20
	c36.2,18.3,137.2,78.5,142.4,81.6c9.8,5.7,21,8.7,32.4,8.7l0,0c23.3,0,44.8-12.4,56.4-32.5c17.9-31.1,7.3-70.8-23.8-88.8L434.6,358z
	"/>
<path d="M360,260H175v125c15,0,45.9,12.8,60,20c36.5,18.5,141.9,81.3,141.9,81.3c35.7,20.9,81.7,9,102.6-26.8
	c20.9-35.7,9-81.7-26.8-102.6c-0.3-0.2-0.6-0.3-0.9-0.5l-1.9-1.1v24.1c19.9,16.8,25.6,46,12.1,69.4c-15.1,26.3-48.8,35.4-75.1,20.3
	c-5.9-3.5-106.6-63.5-142.9-81.9c-0.3-0.2-25.9-13-49.1-19.1V280h145L360,260z"/>
<path d="M360,260c-2.4,0-4.6,0-6.5,0c-10.7-0.1-17.1-0.2-25.8,4.7c0,0-0.1,0.1-0.1,0.1l-73.6,42.5c-16.7,9.6-22.5,31.1-12.8,47.8
	c6.5,11.2,18.3,17.5,30.4,17.5c1.2,0,2.4-0.1,3.6-0.2V352c-6.3,1.6-13.2-1.1-16.6-7c-4.1-7.2-1.7-16.4,5.5-20.5l73.5-42.5
	c3.9-2.2,6.1-2.2,15.8-2.1c2,0,4.2,0,6.7,0h150v-20H360z"/>
<path d="M366.2,354.6c6.1-4.3,9.3-6.2,9.3-14.6s-7-14.2-15.6-14.2c-10.4,0-16.9,6.5-17,17.2h-18c0.4-18.3,12-33,35-33
	c21.6,0,35,13,35,29.2c0,13.6-5,18.6-11.1,23.1c-10.6,7.8-14.9,7.9-14.9,17.7h-18C351,363.9,357.6,360.6,366.2,354.6z M350,390h20
	v20h-20V390z"/>
<rect x="160" y="250" class="st0" width="40" height="160"/>
<path d="M550,260v140h-20V260H550 M570,240h-60v180h60V240z"/>
<path d="M190,260v140h-20V260H190 M210,240h-60v180h60V240z"/>
</svg>
