<svg id="Interests" xmlns="http://www.w3.org/2000/svg" viewBox="0 0 720 720"><defs><style>.cls-1{fill:#fff;}</style></defs><circle class="cls-1" cx="360" cy="360" r="120"/><polygon points="503.49 431.3 380 360 503.49 288.7 512.95 305.08 541.87 255 484.04 255 493.49 271.38 370 342.68 370 200.08 388.92 200.08 360 150 331.08 200.08 350 200.08 350 342.68 226.51 271.38 235.97 255 178.14 255 207.05 305.08 216.51 288.7 340 360 216.51 431.3 207.05 414.92 178.14 465 235.97 465 226.51 448.62 350 377.32 350 519.92 331.08 519.92 360 570 388.92 519.92 370 519.92 370 377.32 493.49 448.62 484.04 465 541.87 465 512.95 414.92 503.49 431.3"/></svg>