<svg id="Icons" xmlns="http://www.w3.org/2000/svg" viewBox="0 0 720 720"><defs><style>.cls-1{fill:#fff;}</style></defs><polygon class="cls-1" points="475.86 250 244.14 250 190 304.14 190 445 530 445 530 304.14 475.86 250"/><path d="M471.72,260,520,308.28V435H200V308.28L248.28,260H471.72M480,240H240l-60,60V455H540V300l-60-60Z"/><path d="M366.22,339.59c6.07-4.25,9.34-6.21,9.34-14.59s-6.95-14.2-15.56-14.2c-10.44,0-16.86,6.49-17,17.2H325c.42-18.27,12-33,35-33,21.59,0,35,13,35,29.23,0,13.6-5,18.57-11.07,23.1C373.34,355.16,369,355.25,369,365H351C351,348.93,357.61,345.64,366.22,339.59ZM350,375h20v20H350Z"/></svg>