<svg data-name="Layer 1" version="1.1" viewBox="0 0 154.8 154.8" xmlns="http://www.w3.org/2000/svg">
 <defs>
  <marker id="marker6159" overflow="visible" orient="auto">
   <path transform="matrix(.3 0 0 .3 -.69 0)" d="m8.7186 4.0337-10.926-4.0177 10.926-4.0177c-1.7455 2.3721-1.7354 5.6175-6e-7 8.0354z" fill-rule="evenodd" stroke="#000" stroke-linejoin="round" stroke-width=".625"/>
  </marker>
  <style>.cls-1,.cls-10,.cls-11,.cls-7,.cls-8{fill:none;}.cls-1,.cls-11{stroke:#00deb6;}.cls-1,.cls-10,.cls-11,.cls-7{stroke-miterlimit:10;}.cls-2{fill:#00deb6;}.cls-3{font-size:16px;fill:#262737;}.cls-12,.cls-3{font-family:HKGrotesk-SemiBold, HK Grotesk;font-weight:700;}.cls-4{letter-spacing:-0.03em;}.cls-5{letter-spacing:-0.02em;}.cls-6{letter-spacing:0em;}.cls-7{stroke:#262737;}.cls-11,.cls-7{stroke-width:5px;}.cls-9{letter-spacing:-0.01em;}.cls-10{stroke:#e6e6e6;}.cls-12{font-size:12px;fill:gray;}.cls-13{letter-spacing:-0.03em;}.cls-14{letter-spacing:-0.01em;}.cls-15{letter-spacing:-0.02em;}.cls-16{letter-spacing:0em;}.cls-17{letter-spacing:0em;}.cls-18{letter-spacing:0em;}</style>
 </defs>
 <title>Artboard 1 copy</title>
 <path class="cls-2" d="m-153.25 23.51z" fill="#00deb6"/>
 <path d="m-153.25 23.51z"/>
 <path class="cls-8" d="m-153.25 23.51z" fill="none"/>
 <path class="cls-8" d="m-153.25 23.51z" fill="none"/>
 <path d="m-153.25 23.51z"/>
 <g fill="none" stroke-miterlimit="10">
  <g stroke="#e6e6e6" stroke-width="1.2">
   <path class="cls-10" d="m-153.25 23.51"/>
   <path class="cls-10" d="m-153.25 23.51"/>
   <path class="cls-10" d="m-153.25 23.51"/>
   <path class="cls-10" d="m-153.25 23.51"/>
   <path class="cls-10" d="m-153.25 23.51"/>
   <path class="cls-10" d="m-153.25 23.51"/>
   <path class="cls-10" d="m-153.25 23.51"/>
   <path class="cls-10" d="m-153.25 23.51"/>
   <path class="cls-10" d="m-153.25 23.51"/>
   <path class="cls-10" d="m-153.25 23.51"/>
   <path class="cls-10" d="m-153.25 23.51"/>
   <path class="cls-10" d="m-153.25 23.51"/>
   <path class="cls-10" d="m-153.25 23.51"/>
   <path class="cls-10" d="m-153.25 23.51"/>
   <path class="cls-10" d="m-153.25 23.51"/>
   <path class="cls-10" d="m-153.25 23.51"/>
   <path class="cls-10" d="m-153.25 23.51"/>
  </g>
  <g stroke="#00deb6" stroke-width="6px">
   <path class="cls-11" d="m-153.25 23.51"/>
   <path class="cls-11" d="m-153.25 23.51"/>
   <path class="cls-11" d="m-153.25 23.51"/>
   <path class="cls-11" d="m-153.25 23.51"/>
   <path class="cls-11" d="m-153.25 23.51"/>
   <path class="cls-11" d="m-153.25 23.51"/>
   <path class="cls-11" d="m-153.25 23.51"/>
  </g>
  <g stroke="#e6e6e6" stroke-width="1.2">
   <path class="cls-10" d="m-153.25 23.51"/>
   <path class="cls-10" d="m-153.25 23.51"/>
   <path class="cls-10" d="m-153.25 23.51"/>
   <path class="cls-10" d="m-153.25 23.51"/>
   <path class="cls-10" d="m-153.25 23.51"/>
   <path class="cls-10" d="m-153.25 23.51"/>
   <path class="cls-10" d="m-153.25 23.51"/>
   <path class="cls-10" d="m-153.25 23.51"/>
   <path class="cls-10" d="m-153.25 23.51"/>
   <path class="cls-10" d="m-153.25 23.51"/>
   <path class="cls-10" d="m-153.25 23.51"/>
   <path class="cls-10" d="m-153.25 23.51"/>
  </g>
 </g>
 <path class="cls-2" d="m-153.25 23.51z" fill="#00deb6"/>
 <path class="cls-2" d="m-153.25 23.51z" fill="#00deb6"/>
 <path class="cls-8" d="m-153.25 23.51z" fill="none"/>
 <path d="m-153.25 23.51z"/>
 <g stroke-miterlimit="10">
  <circle class="cls-11" cx="76.714" cy="429.64" r="43.965" fill="#fff" stroke="#88c9d3" stroke-width="6.87"/>
  <ellipse class="cls-11" cx="76.714" cy="252.04" rx="44.215" ry="42.594" fill="#fff" stroke="#b2b3b9" stroke-linecap="round" stroke-width="1.8696"/>
  <path class="cls-11" d="m98.821 288.93a44.215 42.594 0 0 1-51.693-5.234 44.215 42.594 0 0 1-10.807-48.978 44.215 42.594 0 0 1 45.014-25.036" fill="none" stroke="#88c9d3" stroke-linecap="round" stroke-width="6.33"/>
  <circle class="cls-7" cx="-70.6" cy="77.4" r="46.465" fill="#fff" stroke="#b2b3b9" stroke-width="1.8696"/>
 </g>
 <path d="m76.749 243.32 0.0225-6.9775-17.443-0.0566-0.0977 31.398 34.888 0.11328 0.0792-24.421zm-10.534 20.898-3.4883-0.012 0.0108-3.4883 3.4892 0.012zm0.0225-6.9775-3.4883-0.012 0.0108-3.4883 3.4892 0.012zm0.0225-6.9775-3.4883-0.012 0.0108-3.4883 3.4892 0.012zm0.0225-6.9775-3.4883-0.012 0.0108-3.4883 3.4892 0.012zm6.9101 20.955-3.4883-0.0108 0.0108-3.4922 3.4893 0.012zm0.0225-6.9775-3.4883-0.0108 0.0108-3.4893 3.4893 0.012zm0.0225-6.9775-3.4883-0.0108 0.0108-3.4893 3.4893 0.012zm0.0225-6.9775-3.4883-0.0108 0.0118-3.4892 3.4893 0.012zm17.377 20.989-13.955-0.042 0.0108-3.4892 3.4892 0.012 0.0108-3.4892-3.4883-0.0108 0.0108-3.4892 3.4893 0.012 0.0108-3.4893-3.4883-0.0108 0.0108-3.4892 13.955 0.046zm-3.4443-13.967-3.4883-0.0108-0.012 3.4883 3.4893 0.012zm-0.0224 6.9775-3.4883-0.0108-0.012 3.4883 3.4893 0.012z"/>
 <path d="m-70.522 65.946a3.9351 3.9351 0 1 1-3.9485 3.9217 3.9341 3.9341 0 0 1 3.9485-3.9217m-0.0545 16.864c5.565 0.01824 11.421 2.7739 11.417 3.9724l-7e-3 2.0613-22.861-0.0746 7e-3 -2.0613c0-1.1985 5.8778-3.9159 11.444-3.8978m0.066-20.424a7.4952 7.4952 0 1 0 7.4713 7.5191 7.4933 7.4933 0 0 0-7.4713-7.5191zm-0.0545 16.864c-5.0035-0.01632-14.999 2.4621-15.017 7.4464l-0.0182 5.6214 29.981 0.0956 0.0191-5.6214c0.0172-4.9825-9.962-7.5258-14.965-7.5421z"/>
 <path d="m76.749 420.92 0.0225-6.9775-17.443-0.0566-0.0977 31.398 34.888 0.11328 0.0792-24.421zm-10.534 20.898-3.4883-0.012 0.0108-3.4883 3.4892 0.012zm0.0225-6.9775-3.4883-0.012 0.0108-3.4883 3.4892 0.012zm0.0225-6.9775-3.4883-0.012 0.0108-3.4883 3.4892 0.012zm0.0225-6.9775-3.4883-0.012 0.0108-3.4883 3.4892 0.012zm6.9101 20.955-3.4883-0.0108 0.0108-3.4922 3.4892 0.012zm0.0225-6.9775-3.4883-0.0108 0.0108-3.4893 3.4892 0.012zm0.0225-6.9775-3.4883-0.0108 0.0108-3.4893 3.4892 0.012zm0.0225-6.9775-3.4883-0.0108 0.0118-3.4892 3.4892 0.012zm17.377 20.989-13.955-0.042 0.0108-3.4892 3.4892 0.012 0.0108-3.4892-3.4883-0.0108 0.0108-3.4892 3.4893 0.012 0.0108-3.4893-3.4883-0.0108 0.0108-3.4892 13.955 0.046zm-3.4443-13.967-3.4883-0.0108-0.012 3.4883 3.4893 0.012zm-0.0224 6.9775-3.4883-0.0108-0.012 3.4883 3.4893 0.012z"/>
 <ellipse class="cls-11" cx="227.28" cy="252.04" rx="44.215" ry="42.594" fill="#fff" stroke="#b2b3b9" stroke-linecap="round" stroke-miterlimit="10" stroke-width="1.8696"/>
 <path class="cls-11" d="m249.39 288.93a44.215 42.594 0 0 1-51.693-5.234 44.215 42.594 0 0 1-10.807-48.978 44.215 42.594 0 0 1 45.014-25.036" fill="none" stroke="#88c9d3" stroke-linecap="round" stroke-miterlimit="10" stroke-width="6.33"/>
 <g transform="translate(-58.27 91.698)">
  <g transform="translate(26.249 20.356)">
   <rect x="246.75" y="130.8" width="25.121" height="18.369" color="#000000" color-rendering="auto" image-rendering="auto" shape-rendering="auto" solid-color="#000000" stroke="#1f1f1f" stroke-dasharray="0.76590323, 0.76590323" stroke-linecap="round" stroke-miterlimit="10" stroke-width=".7659" style="isolation:auto;mix-blend-mode:normal"/>
   <path d="m244.11 132.42h30.622l-3.0961-5.5287h-24.363z" fill-rule="evenodd" stroke="#000" stroke-width="1px"/>
   <g shape-rendering="auto">
    <g fill="#fff">
     <rect x="249.08" y="134.51" width="4.6005" height="4.0254" color="#000000" color-rendering="auto" image-rendering="auto" solid-color="#000000" style="isolation:auto;mix-blend-mode:normal"/>
     <rect x="249.08" y="142.51" width="4.6005" height="4.0254" color="#000000" color-rendering="auto" image-rendering="auto" solid-color="#000000" style="isolation:auto;mix-blend-mode:normal"/>
     <rect x="265.08" y="142.51" width="4.6005" height="4.0254" color="#000000" color-rendering="auto" image-rendering="auto" solid-color="#000000" style="isolation:auto;mix-blend-mode:normal"/>
     <rect x="265.08" y="134.51" width="4.6005" height="4.0254" color="#000000" color-rendering="auto" image-rendering="auto" solid-color="#000000" style="isolation:auto;mix-blend-mode:normal"/>
     <rect x="257.08" y="142.51" width="4.6005" height="8.6259" color="#000000" color-rendering="auto" image-rendering="auto" solid-color="#000000" style="isolation:auto;mix-blend-mode:normal"/>
    </g>
    <rect x="247.99" y="123.09" width="2.444" height="4.0254" color="#000000" color-rendering="auto" image-rendering="auto" solid-color="#000000" style="isolation:auto;mix-blend-mode:normal"/>
    <rect x="261.08" y="139.33" width="1.2939" height=".14376" color="#000000" color-rendering="auto" image-rendering="auto" solid-color="#000000" style="isolation:auto;mix-blend-mode:normal"/>
    <rect x="257.88" y="134.5" width="3" height="4.0254" color="#000000" color-rendering="auto" fill="#fff" image-rendering="auto" solid-color="#000000" style="isolation:auto;mix-blend-mode:normal"/>
   </g>
  </g>
  <path d="m266.73 167.02c-3.961-0.0629-3.4897 0.47431-5.7666 3.3627l15.465 8.5829c7.9695 1.7963 18.742-0.16114 19.833-0.46386s4.0734-2.0917 12.469-5.3664l4.2571 0.806 1.4993-7.9663-6.2399-1.1073c-4.3356 0.0199-3.4155-2.196-7.566-1.839-4.1505 0.35696-1.7585-0.37034-8.5806 2.2947-1.5691 1.3268-6.1979 0.48878-10.448 0.436-1.3125-0.19648-2.5128-0.95429-4.3796 1.6211 1.3802 4.6487 0.94924 2.5795 3.0717 4.3042-4.3512 0.23068-5.8821-0.68605-13.614-4.6648z" fill-rule="evenodd" stroke="#fff" stroke-width="1px"/>
 </g>
 <g transform="translate(-27.365 -14.847)">
  <circle class="cls-11" cx="254.65" cy="444.49" r="43.965" fill="#fff" stroke="#88c9d3" stroke-miterlimit="10" stroke-width="6.87"/>
  <g transform="translate(-33.322 284.73)">
   <g transform="translate(26.249 20.356)">
    <rect x="246.75" y="130.8" width="25.121" height="18.369" color="#000000" color-rendering="auto" image-rendering="auto" shape-rendering="auto" solid-color="#000000" stroke="#1f1f1f" stroke-dasharray="0.76590323, 0.76590323" stroke-linecap="round" stroke-miterlimit="10" stroke-width=".7659" style="isolation:auto;mix-blend-mode:normal"/>
    <path d="m244.11 132.42h30.622l-3.0961-5.5287h-24.363z" fill-rule="evenodd" stroke="#000" stroke-width="1px"/>
    <g shape-rendering="auto">
     <g fill="#fff">
      <rect x="249.08" y="134.51" width="4.6005" height="4.0254" color="#000000" color-rendering="auto" image-rendering="auto" solid-color="#000000" style="isolation:auto;mix-blend-mode:normal"/>
      <rect x="249.08" y="142.51" width="4.6005" height="4.0254" color="#000000" color-rendering="auto" image-rendering="auto" solid-color="#000000" style="isolation:auto;mix-blend-mode:normal"/>
      <rect x="265.08" y="142.51" width="4.6005" height="4.0254" color="#000000" color-rendering="auto" image-rendering="auto" solid-color="#000000" style="isolation:auto;mix-blend-mode:normal"/>
      <rect x="265.08" y="134.51" width="4.6005" height="4.0254" color="#000000" color-rendering="auto" image-rendering="auto" solid-color="#000000" style="isolation:auto;mix-blend-mode:normal"/>
      <rect x="257.08" y="142.51" width="4.6005" height="8.6259" color="#000000" color-rendering="auto" image-rendering="auto" solid-color="#000000" style="isolation:auto;mix-blend-mode:normal"/>
     </g>
     <rect x="247.99" y="123.09" width="2.444" height="4.0254" color="#000000" color-rendering="auto" image-rendering="auto" solid-color="#000000" style="isolation:auto;mix-blend-mode:normal"/>
     <rect x="261.08" y="139.33" width="1.2939" height=".14376" color="#000000" color-rendering="auto" image-rendering="auto" solid-color="#000000" style="isolation:auto;mix-blend-mode:normal"/>
     <rect x="257.88" y="134.5" width="3" height="4.0254" color="#000000" color-rendering="auto" fill="#fff" image-rendering="auto" solid-color="#000000" style="isolation:auto;mix-blend-mode:normal"/>
    </g>
   </g>
   <path d="m266.73 167.02c-3.961-0.0629-3.4897 0.47431-5.7666 3.3627l15.465 8.5829c7.9695 1.7963 18.742-0.16114 19.833-0.46386s4.0734-2.0917 12.469-5.3664l4.2571 0.806 1.4993-7.9663-6.2399-1.1073c-4.3356 0.0199-3.4155-2.196-7.566-1.839-4.1505 0.35696-1.7585-0.37034-8.5806 2.2947-1.5691 1.3268-6.1979 0.48878-10.448 0.436-1.3125-0.19648-2.5128-0.95429-4.3796 1.6211 1.3802 4.6487 0.94924 2.5795 3.0717 4.3042-4.3512 0.23068-5.8821-0.68605-13.614-4.6648z" fill-rule="evenodd" stroke="#fff" stroke-width="1px"/>
  </g>
 </g>
 <circle class="cls-7" cx="77.4" cy="77.4" r="46.465" fill="#fff" stroke="#b2b3b9" stroke-miterlimit="10" stroke-width="1.8696"/>
 <path d="m77.435 68.678 0.0225-6.9775-17.443-0.0566-0.0977 31.398 34.888 0.11328 0.0792-24.421zm-10.534 20.898-3.4883-0.012 0.0108-3.4883 3.4892 0.012zm0.0225-6.9775-3.4883-0.012 0.0108-3.4883 3.4892 0.012zm0.0225-6.9775-3.4883-0.012 0.0108-3.4883 3.4892 0.012zm0.0225-6.9775-3.4883-0.012 0.0108-3.4883 3.4892 0.012zm6.9101 20.955-3.4883-0.0108 0.0108-3.4922 3.4893 0.012zm0.0225-6.9775-3.4883-0.0108 0.0108-3.4893 3.4893 0.012zm0.0225-6.9775-3.4883-0.0108 0.0108-3.4893 3.4893 0.012zm0.0225-6.9775-3.4883-0.0108 0.0118-3.4892 3.4893 0.012zm17.377 20.989-13.955-0.042 0.0108-3.4892 3.4892 0.012 0.0108-3.4893-3.4883-0.0108 0.0108-3.4892 3.4893 0.012 0.0108-3.4893-3.4883-0.0108 0.0108-3.4892 13.955 0.046zm-3.4443-13.967-3.4883-0.0108-0.012 3.4883 3.4893 0.012zm-0.0224 6.9775-3.4883-0.0108-0.012 3.4883 3.4893 0.012z"/>
 <circle class="cls-7" cx="225.4" cy="77.4" r="46.465" fill="#fff" stroke="#b2b3b9" stroke-miterlimit="10" stroke-width="1.8696"/>
 <g transform="translate(-60.155 -82.945)">
  <g transform="translate(26.249 20.356)">
   <rect x="246.75" y="130.8" width="25.121" height="18.369" color="#000000" color-rendering="auto" image-rendering="auto" shape-rendering="auto" solid-color="#000000" stroke="#1f1f1f" stroke-dasharray="0.76590323, 0.76590323" stroke-linecap="round" stroke-miterlimit="10" stroke-width=".7659" style="isolation:auto;mix-blend-mode:normal"/>
   <path d="m244.11 132.42h30.622l-3.0961-5.5287h-24.363z" fill-rule="evenodd" stroke="#000" stroke-width="1px"/>
   <g shape-rendering="auto">
    <g fill="#fff">
     <rect x="249.08" y="134.51" width="4.6005" height="4.0254" color="#000000" color-rendering="auto" image-rendering="auto" solid-color="#000000" style="isolation:auto;mix-blend-mode:normal"/>
     <rect x="249.08" y="142.51" width="4.6005" height="4.0254" color="#000000" color-rendering="auto" image-rendering="auto" solid-color="#000000" style="isolation:auto;mix-blend-mode:normal"/>
     <rect x="265.08" y="142.51" width="4.6005" height="4.0254" color="#000000" color-rendering="auto" image-rendering="auto" solid-color="#000000" style="isolation:auto;mix-blend-mode:normal"/>
     <rect x="265.08" y="134.51" width="4.6005" height="4.0254" color="#000000" color-rendering="auto" image-rendering="auto" solid-color="#000000" style="isolation:auto;mix-blend-mode:normal"/>
     <rect x="257.08" y="142.51" width="4.6005" height="8.6259" color="#000000" color-rendering="auto" image-rendering="auto" solid-color="#000000" style="isolation:auto;mix-blend-mode:normal"/>
    </g>
    <rect x="247.99" y="123.09" width="2.444" height="4.0254" color="#000000" color-rendering="auto" image-rendering="auto" solid-color="#000000" style="isolation:auto;mix-blend-mode:normal"/>
    <rect x="261.08" y="139.33" width="1.2939" height=".14376" color="#000000" color-rendering="auto" image-rendering="auto" solid-color="#000000" style="isolation:auto;mix-blend-mode:normal"/>
    <rect x="257.88" y="134.5" width="3" height="4.0254" color="#000000" color-rendering="auto" fill="#fff" image-rendering="auto" solid-color="#000000" style="isolation:auto;mix-blend-mode:normal"/>
   </g>
  </g>
  <path d="m266.73 167.02c-3.961-0.0629-3.4897 0.47431-5.7666 3.3627l15.465 8.5829c7.9695 1.7963 18.742-0.16114 19.833-0.46386s4.0734-2.0917 12.469-5.3664l4.2571 0.806 1.4993-7.9663-6.2399-1.1073c-4.3356 0.0199-3.4155-2.196-7.566-1.839-4.1505 0.35696-1.7585-0.37034-8.5806 2.2947-1.5691 1.3268-6.1979 0.48878-10.448 0.436-1.3125-0.19648-2.5128-0.95429-4.3796 1.6211 1.3802 4.6487 0.94924 2.5795 3.0717 4.3042-4.3512 0.23068-5.8821-0.68605-13.614-4.6648z" fill-rule="evenodd" stroke="#fff" stroke-width="1px"/>
 </g>
 <g transform="translate(-340.65 -126.01)">
  <circle class="cls-11" cx="254.65" cy="444.49" r="43.965" fill="#fff" stroke="#88c9d3" stroke-miterlimit="10" stroke-width="6.87"/>
  <g transform="translate(-33.322 284.73)">
   <g transform="translate(26.249 20.356)">
    <rect x="246.75" y="130.8" width="25.121" height="18.369" color="#000000" color-rendering="auto" image-rendering="auto" shape-rendering="auto" solid-color="#000000" stroke="#1f1f1f" stroke-dasharray="0.76590323, 0.76590323" stroke-linecap="round" stroke-miterlimit="10" stroke-width=".7659" style="isolation:auto;mix-blend-mode:normal"/>
    <path d="m244.11 132.42h30.622l-3.0961-5.5287h-24.363z" fill-rule="evenodd" stroke="#000" stroke-width="1px"/>
    <g shape-rendering="auto">
     <g fill="#fff">
      <rect x="249.08" y="134.51" width="4.6005" height="4.0254" color="#000000" color-rendering="auto" image-rendering="auto" solid-color="#000000" style="isolation:auto;mix-blend-mode:normal"/>
      <rect x="249.08" y="142.51" width="4.6005" height="4.0254" color="#000000" color-rendering="auto" image-rendering="auto" solid-color="#000000" style="isolation:auto;mix-blend-mode:normal"/>
      <rect x="265.08" y="142.51" width="4.6005" height="4.0254" color="#000000" color-rendering="auto" image-rendering="auto" solid-color="#000000" style="isolation:auto;mix-blend-mode:normal"/>
      <rect x="265.08" y="134.51" width="4.6005" height="4.0254" color="#000000" color-rendering="auto" image-rendering="auto" solid-color="#000000" style="isolation:auto;mix-blend-mode:normal"/>
      <rect x="257.08" y="142.51" width="4.6005" height="8.6259" color="#000000" color-rendering="auto" image-rendering="auto" solid-color="#000000" style="isolation:auto;mix-blend-mode:normal"/>
     </g>
     <rect x="247.99" y="123.09" width="2.444" height="4.0254" color="#000000" color-rendering="auto" image-rendering="auto" solid-color="#000000" style="isolation:auto;mix-blend-mode:normal"/>
     <rect x="261.08" y="139.33" width="1.2939" height=".14376" color="#000000" color-rendering="auto" image-rendering="auto" solid-color="#000000" style="isolation:auto;mix-blend-mode:normal"/>
     <rect x="257.88" y="134.5" width="3" height="4.0254" color="#000000" color-rendering="auto" fill="#fff" image-rendering="auto" solid-color="#000000" style="isolation:auto;mix-blend-mode:normal"/>
    </g>
   </g>
   <path d="m266.73 167.02c-3.961-0.0629-3.4897 0.47431-5.7666 3.3627l15.465 8.5829c7.9695 1.7963 18.742-0.16114 19.833-0.46386s4.0734-2.0917 12.469-5.3664l4.2571 0.806 1.4993-7.9663-6.2399-1.1073c-4.3356 0.0199-3.4155-2.196-7.566-1.839-4.1505 0.35696-1.7585-0.37034-8.5806 2.2947-1.5691 1.3268-6.1979 0.48878-10.448 0.436-1.3125-0.19648-2.5128-0.95429-4.3796 1.6211 1.3802 4.6487 0.94924 2.5795 3.0717 4.3042-4.3512 0.23068-5.8821-0.68605-13.614-4.6648z" fill-rule="evenodd" stroke="#fff" stroke-width="1px"/>
  </g>
 </g>
 <g transform="translate(-445.74 -101.09)">
  <circle class="cls-11" cx="398.8" cy="441.54" r="43.965" fill="#fff" stroke="#88c9d3" stroke-miterlimit="10" stroke-width="6.87"/>
  <path d="m398.83 432.82 0.0225-6.9775-17.443-0.0566-0.0977 31.398 34.888 0.11328 0.0792-24.421zm-10.534 20.898-3.4883-0.012 0.0108-3.4883 3.4892 0.012zm0.0225-6.9775-3.4883-0.012 0.0108-3.4883 3.4892 0.012zm0.0225-6.9775-3.4883-0.012 0.0108-3.4883 3.4892 0.012zm0.0225-6.9775-3.4883-0.012 0.0108-3.4883 3.4892 0.012zm6.9101 20.955-3.4883-0.0108 0.0108-3.4922 3.4892 0.012zm0.0225-6.9775-3.4883-0.0108 0.0108-3.4893 3.4892 0.012zm0.0225-6.9775-3.4883-0.0108 0.0108-3.4893 3.4892 0.012zm0.0225-6.9775-3.4883-0.0108 0.0118-3.4892 3.4892 0.012zm17.377 20.989-13.955-0.042 0.0108-3.4892 3.4892 0.012 0.0108-3.4892-3.4883-0.0108 0.0108-3.4892 3.4893 0.012 0.0108-3.4893-3.4883-0.0108 0.0108-3.4892 13.955 0.046zm-3.4443-13.967-3.4883-0.0108-0.012 3.4883 3.4893 0.012zm-0.0224 6.9775-3.4883-0.0108-0.012 3.4883 3.4893 0.012z"/>
 </g>
 <ellipse class="cls-11" cx="386.59" cy="252.19" rx="44.215" ry="42.594" fill="#fff" stroke="#b2b3b9" stroke-linecap="round" stroke-miterlimit="10" stroke-width="1.8696"/>
 <path class="cls-11" d="m408.7 289.07a44.215 42.594 0 0 1-51.693-5.234 44.215 42.594 0 0 1-10.807-48.978 44.215 42.594 0 0 1 45.014-25.036" fill="none" stroke="#88c9d3" stroke-linecap="round" stroke-miterlimit="10" stroke-width="6.33"/>
 <g transform="translate(131.94 -14.705)">
  <circle class="cls-11" cx="254.65" cy="444.49" r="43.965" fill="#fff" stroke="#88c9d3" stroke-miterlimit="10" stroke-width="6.87"/>
 </g>
 <circle class="cls-7" cx="384.71" cy="77.542" r="46.465" fill="#fff" stroke="#b2b3b9" stroke-miterlimit="10" stroke-width="1.8696"/>
 <g transform="matrix(1.5 0 0 1.5 361.84 407.03)">
  <g>
   <path d="m32.458 17.117-4.328-9.756c-0.054-0.121-0.153-0.214-0.277-0.259-0.122-0.046-0.261-0.039-0.378 0.02l-3.449 1.682c-0.155 0.075-0.258 0.228-0.271 0.399-0.014 0.171 0.065 0.337 0.206 0.435l0.565 0.394c-0.107 0.016-0.22 0.03-0.35 0.03-0.418 0-0.854-0.097-1.296-0.289-0.52-0.226-0.866-0.438-1.203-0.644-0.738-0.452-1.376-0.841-3.248-1.027l-0.551-0.057c-0.699-0.073-1.251-0.131-1.729-0.131-0.761 0-1.603 0.135-2.068 1.132-0.068 0.147-0.177 0.328-0.305 0.527-0.723 0.028-4.323 0.161-6.156 0.07l0.371-0.534c0.089-0.128 0.11-0.29 0.059-0.437-0.05-0.147-0.168-0.259-0.317-0.304l-3.05-0.916c-0.245-0.076-0.508 0.058-0.596 0.3l-3.559 9.916c-0.083 0.231 0.021 0.489 0.242 0.599l3.013 1.487c0.068 0.033 0.142 0.05 0.215 0.05 0.077 0 0.154-0.018 0.225-0.055 0.138-0.072 0.232-0.204 0.255-0.357l0.159-1.063 1.716 1.013c-0.303 1.271-0.523 2.36 0.664 2.719 0.21 0.063 0.399 0.095 0.578 0.095 0.184 0 0.43-0.042 0.661-0.188-0.048 0.742 0.149 1.315 0.964 1.562 0.23 0.07 0.437 0.104 0.632 0.104 0.185 0 0.426-0.04 0.661-0.172-0.021 0.679 0.19 1.204 0.954 1.435 0.229 0.069 0.434 0.104 0.628 0.104 0.174 0 0.399-0.034 0.621-0.149 0.062 0.458 0.302 0.816 0.898 0.988 0.213 0.061 0.402 0.091 0.583 0.091 0.409 0 1.116-0.172 1.315-1.255 0.576 0.232 1.076 0.329 1.497 0.329 0.821 0 1.354-0.336 1.638-0.587 1.037 0.255 1.854 0.161 2.434-0.271 0.397-0.297 0.593-0.693 0.688-1.014 0.623 0.063 1.166-0.074 1.61-0.398 0.574-0.424 0.829-1.072 0.94-1.513 0.858-0.019 1.451-0.217 1.808-0.686 0.357-0.472 0.353-1.037 0.285-1.427l1.794-0.874 0.067 0.762c0.015 0.16 0.107 0.303 0.247 0.381 0.073 0.041 0.154 0.062 0.236 0.062 0.074 0 0.149-0.017 0.218-0.052l3.257-1.638c0.233-0.118 0.332-0.396 0.227-0.633z"/>
   <path d="m13.671 9.1404-0.78658 1.4982c-0.61748 0.87398-1.2883 1.748-0.9364 2.6219 2.1419 0.46616 3.4834-0.08623 4.5322-1.0113 0.65669 0.14172 1.5664 0.22019 2.6219 0.26219 3.8999 3.1236 6.4591 5.2022 8.7647 7.5287" fill="none" stroke="#fff" stroke-width=".7"/>
   <path d="m6.0679 19.329c0.50119-1.9442 1.0552-2.2202 2.0775-2.1542 0.62862 0.0406 1.0853 0.73715 1.1812 1.5174 0.83931-0.45158 1.7874-0.23129 2.2099 1.1611 1.118-0.55051 2.3567 0.41432 2.3972 1.6481 1.3326-0.51324 2.0942 1.2086 1.9103 3.4085" fill="none" stroke="#fff" stroke-width=".7"/>
  </g>
 </g>
 <g transform="matrix(1.5 0 0 1.5 361.84 229.43)">
  <g>
   <path d="m32.458 17.117-4.328-9.756c-0.054-0.121-0.153-0.214-0.277-0.259-0.122-0.046-0.261-0.039-0.378 0.02l-3.449 1.682c-0.155 0.075-0.258 0.228-0.271 0.399-0.014 0.171 0.065 0.337 0.206 0.435l0.565 0.394c-0.107 0.016-0.22 0.03-0.35 0.03-0.418 0-0.854-0.097-1.296-0.289-0.52-0.226-0.866-0.438-1.203-0.644-0.738-0.452-1.376-0.841-3.248-1.027l-0.551-0.057c-0.699-0.073-1.251-0.131-1.729-0.131-0.761 0-1.603 0.135-2.068 1.132-0.068 0.147-0.177 0.328-0.305 0.527-0.723 0.028-4.323 0.161-6.156 0.07l0.371-0.534c0.089-0.128 0.11-0.29 0.059-0.437-0.05-0.147-0.168-0.259-0.317-0.304l-3.05-0.916c-0.245-0.076-0.508 0.058-0.596 0.3l-3.559 9.916c-0.083 0.231 0.021 0.489 0.242 0.599l3.013 1.487c0.068 0.033 0.142 0.05 0.215 0.05 0.077 0 0.154-0.018 0.225-0.055 0.138-0.072 0.232-0.204 0.255-0.357l0.159-1.063 1.716 1.013c-0.303 1.271-0.523 2.36 0.664 2.719 0.21 0.063 0.399 0.095 0.578 0.095 0.184 0 0.43-0.042 0.661-0.188-0.048 0.742 0.149 1.315 0.964 1.562 0.23 0.07 0.437 0.104 0.632 0.104 0.185 0 0.426-0.04 0.661-0.172-0.021 0.679 0.19 1.204 0.954 1.435 0.229 0.069 0.434 0.104 0.628 0.104 0.174 0 0.399-0.034 0.621-0.149 0.062 0.458 0.302 0.816 0.898 0.988 0.213 0.061 0.402 0.091 0.583 0.091 0.409 0 1.116-0.172 1.315-1.255 0.576 0.232 1.076 0.329 1.497 0.329 0.821 0 1.354-0.336 1.638-0.587 1.037 0.255 1.854 0.161 2.434-0.271 0.397-0.297 0.593-0.693 0.688-1.014 0.623 0.063 1.166-0.074 1.61-0.398 0.574-0.424 0.829-1.072 0.94-1.513 0.858-0.019 1.451-0.217 1.808-0.686 0.357-0.472 0.353-1.037 0.285-1.427l1.794-0.874 0.067 0.762c0.015 0.16 0.107 0.303 0.247 0.381 0.073 0.041 0.154 0.062 0.236 0.062 0.074 0 0.149-0.017 0.218-0.052l3.257-1.638c0.233-0.118 0.332-0.396 0.227-0.633z"/>
   <path d="m13.671 9.1404-0.78658 1.4982c-0.61748 0.87398-1.2883 1.748-0.9364 2.6219 2.1419 0.46616 3.4834-0.08623 4.5322-1.0113 0.65669 0.14172 1.5664 0.22019 2.6219 0.26219 3.8999 3.1236 6.4591 5.2022 8.7647 7.5287" fill="none" stroke="#fff" stroke-width=".7"/>
   <path d="m6.0679 19.329c0.50119-1.9442 1.0552-2.2202 2.0775-2.1542 0.62862 0.0406 1.0853 0.73715 1.1812 1.5174 0.83931-0.45158 1.7874-0.23129 2.2099 1.1611 1.118-0.55051 2.3567 0.41432 2.3972 1.6481 1.3326-0.51324 2.0942 1.2086 1.9103 3.4085" fill="none" stroke="#fff" stroke-width=".7"/>
  </g>
 </g>
 <g transform="matrix(1.5 0 0 1.5 359.96 54.79)">
  <g>
   <path d="m32.458 17.117-4.328-9.756c-0.054-0.121-0.153-0.214-0.277-0.259-0.122-0.046-0.261-0.039-0.378 0.02l-3.449 1.682c-0.155 0.075-0.258 0.228-0.271 0.399-0.014 0.171 0.065 0.337 0.206 0.435l0.565 0.394c-0.107 0.016-0.22 0.03-0.35 0.03-0.418 0-0.854-0.097-1.296-0.289-0.52-0.226-0.866-0.438-1.203-0.644-0.738-0.452-1.376-0.841-3.248-1.027l-0.551-0.057c-0.699-0.073-1.251-0.131-1.729-0.131-0.761 0-1.603 0.135-2.068 1.132-0.068 0.147-0.177 0.328-0.305 0.527-0.723 0.028-4.323 0.161-6.156 0.07l0.371-0.534c0.089-0.128 0.11-0.29 0.059-0.437-0.05-0.147-0.168-0.259-0.317-0.304l-3.05-0.916c-0.245-0.076-0.508 0.058-0.596 0.3l-3.559 9.916c-0.083 0.231 0.021 0.489 0.242 0.599l3.013 1.487c0.068 0.033 0.142 0.05 0.215 0.05 0.077 0 0.154-0.018 0.225-0.055 0.138-0.072 0.232-0.204 0.255-0.357l0.159-1.063 1.716 1.013c-0.303 1.271-0.523 2.36 0.664 2.719 0.21 0.063 0.399 0.095 0.578 0.095 0.184 0 0.43-0.042 0.661-0.188-0.048 0.742 0.149 1.315 0.964 1.562 0.23 0.07 0.437 0.104 0.632 0.104 0.185 0 0.426-0.04 0.661-0.172-0.021 0.679 0.19 1.204 0.954 1.435 0.229 0.069 0.434 0.104 0.628 0.104 0.174 0 0.399-0.034 0.621-0.149 0.062 0.458 0.302 0.816 0.898 0.988 0.213 0.061 0.402 0.091 0.583 0.091 0.409 0 1.116-0.172 1.315-1.255 0.576 0.232 1.076 0.329 1.497 0.329 0.821 0 1.354-0.336 1.638-0.587 1.037 0.255 1.854 0.161 2.434-0.271 0.397-0.297 0.593-0.693 0.688-1.014 0.623 0.063 1.166-0.074 1.61-0.398 0.574-0.424 0.829-1.072 0.94-1.513 0.858-0.019 1.451-0.217 1.808-0.686 0.357-0.472 0.353-1.037 0.285-1.427l1.794-0.874 0.067 0.762c0.015 0.16 0.107 0.303 0.247 0.381 0.073 0.041 0.154 0.062 0.236 0.062 0.074 0 0.149-0.017 0.218-0.052l3.257-1.638c0.233-0.118 0.332-0.396 0.227-0.633z"/>
   <path d="m13.671 9.1404-0.78658 1.4982c-0.61748 0.87398-1.2883 1.748-0.9364 2.6219 2.1419 0.46616 3.4834-0.08623 4.5322-1.0113 0.65669 0.14172 1.5664 0.22019 2.6219 0.26219 3.8999 3.1236 6.4591 5.2022 8.7647 7.5287" fill="none" stroke="#fff" stroke-width=".7"/>
   <path d="m6.0679 19.329c0.50119-1.9442 1.0552-2.2202 2.0775-2.1542 0.62862 0.0406 1.0853 0.73715 1.1812 1.5174 0.83931-0.45158 1.7874-0.23129 2.2099 1.1611 1.118-0.55051 2.3567 0.41432 2.3972 1.6481 1.3326-0.51324 2.0942 1.2086 1.9103 3.4085" fill="none" stroke="#fff" stroke-width=".7"/>
  </g>
 </g>
 <g transform="translate(-200.07 -12.148)">
  <g stroke="#f7f7f7" stroke-miterlimit="8.6957">
   <path class="cls-2" d="m760.13 28.449z" fill="#00deb6"/>
   <path d="m760.13 28.449z"/>
   <path class="cls-8" d="m760.13 28.449z" fill="none"/>
   <path class="cls-8" d="m760.13 28.449z" fill="none"/>
   <path d="m760.13 28.449z"/>
  </g>
  <g fill="none" stroke="#f7f7f7" stroke-miterlimit="8.6957">
   <path class="cls-10" d="m760.13 28.449"/>
   <path class="cls-10" d="m760.13 28.449"/>
   <path class="cls-10" d="m760.13 28.449"/>
   <path class="cls-10" d="m760.13 28.449"/>
   <path class="cls-10" d="m760.13 28.449"/>
   <path class="cls-10" d="m760.13 28.449"/>
   <path class="cls-10" d="m760.13 28.449"/>
   <path class="cls-10" d="m760.13 28.449"/>
   <path class="cls-10" d="m760.13 28.449"/>
   <path class="cls-10" d="m760.13 28.449"/>
   <path class="cls-10" d="m760.13 28.449"/>
   <path class="cls-10" d="m760.13 28.449"/>
   <path class="cls-10" d="m760.13 28.449"/>
   <path class="cls-10" d="m760.13 28.449"/>
   <path class="cls-10" d="m760.13 28.449"/>
   <path class="cls-10" d="m760.13 28.449"/>
   <path class="cls-10" d="m760.13 28.449"/>
   <path class="cls-11" d="m760.13 28.449"/>
   <path class="cls-11" d="m760.13 28.449"/>
   <path class="cls-11" d="m760.13 28.449"/>
   <path class="cls-11" d="m760.13 28.449"/>
   <path class="cls-11" d="m760.13 28.449"/>
   <path class="cls-11" d="m760.13 28.449"/>
   <path class="cls-11" d="m760.13 28.449"/>
   <path class="cls-10" d="m760.13 28.449"/>
   <path class="cls-10" d="m760.13 28.449"/>
   <path class="cls-10" d="m760.13 28.449"/>
   <path class="cls-10" d="m760.13 28.449"/>
   <path class="cls-10" d="m760.13 28.449"/>
   <path class="cls-10" d="m760.13 28.449"/>
   <path class="cls-10" d="m760.13 28.449"/>
   <path class="cls-10" d="m760.13 28.449"/>
   <path class="cls-10" d="m760.13 28.449"/>
   <path class="cls-10" d="m760.13 28.449"/>
   <path class="cls-10" d="m760.13 28.449"/>
   <path class="cls-10" d="m760.13 28.449"/>
  </g>
  <g stroke="#f7f7f7" stroke-miterlimit="8.6957">
   <path class="cls-2" d="m760.13 28.449z" fill="#00deb6"/>
   <path class="cls-2" d="m760.13 28.449z" fill="#00deb6"/>
   <path class="cls-8" d="m760.13 28.449z" fill="none"/>
   <path d="m760.13 28.449z"/>
  </g>
  <circle class="cls-7" cx="744.96" cy="50.774" r="20.159" fill="#fff" stroke="#b2b3b9" stroke-miterlimit="10"/>
  <path d="m744.98 76.508v39.188" fill="none" marker-start="url(#marker6159)" stroke="#000" stroke-width="3.5749"/>
  <circle class="cls-7" cx="744.38" cy="135.92" r="20.159" fill="#fff" stroke="#000" stroke-miterlimit="10"/>
  <g transform="translate(13.127 -5.333)" fill="#fff" stroke="#b2b3b9" stroke-miterlimit="10" stroke-width="1.5749">
   <circle class="cls-7" cx="867.2" cy="88.574" r="31.749"/>
   <circle class="cls-7" cx="876.89" cy="100.2" r="31.749"/>
   <circle class="cls-7" cx="885.29" cy="111.83" r="31.749"/>
  </g>
 </g>
 <g transform="translate(-184.48 -6.6183)" stroke-miterlimit="10" stroke-width="0">
  <path class="cls-7" d="m771.72 258.06a46.465 46.465 0 0 1-37.4 45.572 46.465 46.465 0 0 1-51.993-27.791 46.465 46.465 0 0 1 17.114-56.416 46.465 46.465 0 0 1 58.671 5.7786l-32.856 32.856z" fill="#f7f7f7"/>
  <path class="cls-7" d="m764.86 222.39a46.465 46.465 0 0 1 13.609 32.856h-46.465z"/>
 </g>
 <g transform="translate(-177.51 -3.5336)">
  <circle class="cls-7" cx="717.98" cy="434.15" r="46.465" fill="#f7f7f7" stroke-miterlimit="10" stroke-width="0"/>
  <g transform="translate(-33.032 -93.722)">
   <path d="m771.01 509.52-36.023 36.023" fill="none" stroke="#000" stroke-width="4.647"/>
   <g transform="translate(18.081 -3.2818)">
    <circle cx="745.56" cy="541.41" r="8.0857" color="#000000" color-rendering="auto" fill="none" image-rendering="auto" shape-rendering="auto" solid-color="#000000" stroke="#000" stroke-linecap="round" stroke-miterlimit="10" stroke-width="3.901" style="isolation:auto;mix-blend-mode:normal"/>
    <path d="m737.35 543.93c5.3226-3.0611 10.645-3.5549 15.968 0" fill="none" stroke="#000" stroke-width="3.3"/>
    <path d="m744.41 541.41-1.3255 8.2014c5.2-3.1595-0.76276-0.6804 5.0398-0.0898l-1.4912-8.0288z" color="#000000" color-rendering="auto" fill-rule="evenodd" image-rendering="auto" shape-rendering="auto" solid-color="#000000" style="isolation:auto;mix-blend-mode:normal;text-decoration-color:#000000;text-decoration-line:none;text-decoration-style:solid;text-indent:0;text-transform:none;white-space:normal"/>
   </g>
   <text x="729.37622" y="527.87079" fill="#000000" font-family="FuturaExt-Bold" letter-spacing="0px" stroke-width="1px" word-spacing="0px" style="line-height:0%" xml:space="preserve"><tspan x="729.37622" y="527.87079" font-family="FuturaExt-Bold" font-size="30px" style="line-height:125%">$</tspan></text>
  </g>
 </g>
</svg>
