<svg data-name="Layer 1" version="1.1" viewBox="0 0 154.8 154.8" xmlns="http://www.w3.org/2000/svg">
 <defs>
  <style>.cls-1,.cls-10,.cls-11,.cls-7,.cls-8{fill:none;}.cls-1,.cls-11{stroke:#00deb6;}.cls-1,.cls-10,.cls-11,.cls-7{stroke-miterlimit:10;}.cls-2{fill:#00deb6;}.cls-3{font-size:16px;fill:#262737;}.cls-12,.cls-3{font-family:HKGrotesk-SemiBold, HK Grotesk;font-weight:700;}.cls-4{letter-spacing:-0.03em;}.cls-5{letter-spacing:-0.02em;}.cls-6{letter-spacing:0em;}.cls-7{stroke:#262737;}.cls-11,.cls-7{stroke-width:5px;}.cls-9{letter-spacing:-0.01em;}.cls-10{stroke:#e6e6e6;}.cls-12{font-size:12px;fill:gray;}.cls-13{letter-spacing:-0.03em;}.cls-14{letter-spacing:-0.01em;}.cls-15{letter-spacing:-0.02em;}.cls-16{letter-spacing:0em;}.cls-17{letter-spacing:0em;}.cls-18{letter-spacing:0em;}</style>
 </defs>
 <title>Artboard 1 copy</title>
 <circle class="cls-7" cx="77.4" cy="77.4" r="46.465" fill="#fff" stroke="#b2b3b9" stroke-miterlimit="10" stroke-width="1.8696"/>
 <path d="m77.478 65.946a3.9351 3.9351 0 1 1-3.9485 3.9217 3.9341 3.9341 0 0 1 3.9485-3.9217m-0.0545 16.864c5.565 0.01824 11.421 2.7739 11.417 3.9724l-7e-3 2.0613-22.861-0.0746 7e-3 -2.0613c0-1.1985 5.8778-3.9159 11.444-3.8978m0.066-20.424a7.4952 7.4952 0 1 0 7.4713 7.5191 7.4933 7.4933 0 0 0-7.4713-7.5191zm-0.0545 16.864c-5.0035-0.01632-14.999 2.4621-15.017 7.4464l-0.0182 5.6214 29.981 0.0956 0.0191-5.6214c0.0172-4.9825-9.962-7.5258-14.965-7.5421z"/>
</svg>
